<?xml version="1.0" encoding="utf-8"?>
<!-- Generator: Adobe Illustrator 27.5.0, SVG Export Plug-In . SVG Version: 6.00 Build 0)  -->
<svg version="1.1" xmlns="http://www.w3.org/2000/svg" xmlns:xlink="http://www.w3.org/1999/xlink" x="0px" y="0px"
	 viewBox="0 0 500 500" style="enable-background:new 0 0 500 500;" xml:space="preserve">
<g id="BACKGROUND">
	<rect style="fill:#FFFFFF;stroke:#1D1D1B;stroke-miterlimit:10;" width="500" height="500"/>
	<g>
		<polygon style="fill:#CAD2F9;" points="388.296,114.275 382.231,114.275 382.231,108.21 377.927,108.21 377.927,114.275 
			371.863,114.275 371.863,118.579 377.927,118.579 377.927,124.645 382.231,124.645 382.231,118.579 388.296,118.579 		"/>
		<polygon style="fill:#CAD2F9;" points="351.733,91.401 347.335,91.401 347.335,87.002 344.213,87.002 344.213,91.401 
			339.815,91.401 339.815,94.523 344.213,94.523 344.213,98.921 347.335,98.921 347.335,94.523 351.733,94.523 		"/>
		<polygon style="fill:#CAD2F9;" points="161.694,162.728 157.295,162.728 157.295,158.329 154.174,158.329 154.174,162.728 
			149.776,162.728 149.776,165.849 154.174,165.849 154.174,170.248 157.295,170.248 157.295,165.849 161.694,165.849 		"/>
		<polygon style="fill:#CAD2F9;" points="42.831,261.986 36.766,261.986 36.766,255.92 32.462,255.92 32.462,261.986 
			26.398,261.986 26.398,266.29 32.462,266.29 32.462,272.355 36.766,272.355 36.766,266.29 42.831,266.29 		"/>
		<polygon style="fill:#CAD2F9;" points="456.824,156.768 452.426,156.768 452.426,152.37 449.304,152.37 449.304,156.768 
			444.906,156.768 444.906,159.89 449.304,159.89 449.304,164.288 452.426,164.288 452.426,159.89 456.824,159.89 		"/>
	</g>
	<g>
		<circle style="fill:#EEF1FF;" cx="338.256" cy="124.475" r="3.793"/>
		<circle style="fill:#EEF1FF;" cx="402.233" cy="87.002" r="2.003"/>
		<path style="fill:#EEF1FF;" d="M232.298,186.72c0,1.106-0.897,2.003-2.003,2.003c-1.106,0-2.003-0.897-2.003-2.003
			c0-1.106,0.897-2.003,2.003-2.003C231.401,184.717,232.298,185.614,232.298,186.72z"/>
		<path style="fill:#EEF1FF;" d="M433.285,120.359c0,2.095-1.698,3.793-3.793,3.793c-2.095,0-3.793-1.698-3.793-3.793
			c0-2.095,1.698-3.793,3.793-3.793C431.587,116.565,433.285,118.264,433.285,120.359z"/>
		<path style="fill:#EEF1FF;" d="M201.698,153.125c0,1.106-0.897,2.003-2.003,2.003c-1.106,0-2.003-0.897-2.003-2.003
			c0-1.106,0.897-2.003,2.003-2.003C200.801,151.122,201.698,152.018,201.698,153.125z"/>
		<path style="fill:#EEF1FF;" d="M144.638,89.005c0,1.106-0.897,2.003-2.003,2.003s-2.003-0.897-2.003-2.003
			c0-1.106,0.897-2.003,2.003-2.003S144.638,87.899,144.638,89.005z"/>
		<path style="fill:#EEF1FF;" d="M58.693,206.878c0,2.095-1.698,3.793-3.793,3.793c-2.095,0-3.793-1.698-3.793-3.793
			c0-2.095,1.698-3.793,3.793-3.793C56.994,203.085,58.693,204.783,58.693,206.878z"/>
		<circle style="fill:#EEF1FF;" cx="158.065" cy="239.968" r="3.793"/>
		<circle style="fill:#EEF1FF;" cx="61.039" cy="108.787" r="3.793"/>
		<path style="fill:#EEF1FF;" d="M22.192,293.877c0,1.106-0.897,2.003-2.003,2.003c-1.106,0-2.003-0.897-2.003-2.003
			c0-1.106,0.897-2.003,2.003-2.003C21.296,291.874,22.192,292.771,22.192,293.877z"/>
		<path style="fill:#EEF1FF;" d="M462.428,363.332c0,1.106-0.897,2.003-2.003,2.003c-1.106,0-2.003-0.897-2.003-2.003
			s0.897-2.003,2.003-2.003C461.532,361.329,462.428,362.225,462.428,363.332z"/>
	</g>
</g>
<g id="OBJECTS">
	<ellipse style="fill:#EDF0FC;" cx="242.196" cy="405.066" rx="224.587" ry="29.935"/>
	<g>
		<path style="fill:#E2E6FF;" d="M439.884,234.492c12.715,3.679,30.948-4.96,25.898-14.796c-4.217-8.214-19.354,6.302-24.974,12.138
			c1.25-3.624,2.406-7.28,3.462-10.965c10.87-7.468,15.855-26.804,5.127-29.237c-9.197-2.086-7.534,19.789-6.68,27.438
			c-0.711,2.542-1.484,5.066-2.289,7.579c0.956-11.306-5.044-23.668-13.548-20.395c-9.735,3.747,7.885,24.446,10.978,27.966
			c-0.121,0.335-0.232,0.673-0.354,1.007c-1.439,3.934-2.999,7.826-4.674,11.667c1.744-11.042-3.084-23.457-11.712-21.018
			c-9.856,2.786,5.043,24.258,8.196,28.624c-1.421,2.905-2.908,5.778-4.483,8.603c-1.179,2.114-2.414,4.199-3.685,6.261
			c3.91-11.285,0.211-26.243-9.266-24.368c-10.234,2.024,3.579,25.433,6.02,29.426c-2.97,4.418-6.185,8.668-9.658,12.701
			c5.029-10.936,2.647-26.451-7.044-25.368c-10.11,1.13,0.858,24.435,3.354,29.475c-3.928,4.156-8.172,8.01-12.711,11.472
			c7.073-9.686,7.864-25.227-1.801-26.145c-10.055-0.956-4.241,23.75-2.774,29.432c-3.652,2.462-7.476,4.673-11.467,6.58
			c-1.414,0.676-2.845,1.314-4.294,1.91c-1.174,0.483-0.66,2.42,0.532,1.929c5.907-2.432,11.507-5.491,16.762-9.062
			c9.62,9.232,30.204,9.759,30.068-1.41c-0.111-9.164-19.828-3.084-27.585-0.336c4.024-2.92,7.836-6.142,11.409-9.625
			c1.258-1.226,2.477-2.49,3.677-3.771c11.322,6.994,31.468,3.289,29.057-7.588c-1.964-8.858-19.68,0.84-26.856,5.184
			c4.111-4.636,7.867-9.587,11.306-14.744c11.898,5.786,31.317,0.398,28.029-10.151c-2.679-8.594-19.283,2.318-26.171,7.306
			c0.839-1.32,1.661-2.65,2.46-3.993c2.542-4.27,4.882-8.656,7.053-13.126c12.316,5.01,31.527-1.936,27.375-12.258
			c-3.517-8.743-20.534,5.047-26.35,10.111c2.068-4.395,3.979-8.865,5.732-13.393C438.653,237.874,439.275,236.186,439.884,234.492z
			"/>
		<path style="fill:#E2E6FF;" d="M60.667,323.455c-0.688-13.218-14.822-27.617-22.461-19.624
			c-6.38,6.675,12.293,16.223,19.647,19.622c-3.833,0.006-7.666,0.111-11.494,0.32c-10.616-7.825-30.518-6.202-29.304,4.731
			c1.041,9.373,21.165,0.637,28.113-2.674c2.634-0.161,5.272-0.256,7.911-0.319c-10.996,2.8-20.711,12.517-14.833,19.479
			c6.728,7.971,20.515-15.456,22.829-19.531c0.356,0.004,0.712-0.001,1.068,0.005c4.189,0.072,8.376,0.271,12.554,0.596
			c-11.004,1.968-21.153,10.596-16.023,17.949c5.86,8.4,21.269-12.71,24.361-17.118c3.21,0.391,6.411,0.855,9.596,1.418
			c2.384,0.421,4.758,0.905,7.122,1.431c-11.943,0.001-24.864,8.395-19.99,16.735c5.264,9.007,22.858-11.711,25.832-15.325
			c5.147,1.359,10.215,3.005,15.163,4.966c-11.98-1.17-25.859,6.161-21.662,14.963c4.378,9.182,22.807-8.813,26.751-12.823
			c5.213,2.35,10.245,5.098,15.002,8.253c-11.468-3.511-26.411,0.831-24.114,10.264c2.39,9.813,23.829-3.771,28.717-7.018
			c3.523,2.645,6.863,5.534,9.973,8.68c1.101,1.114,2.173,2.258,3.211,3.432c0.841,0.951,2.502-0.169,1.648-1.134
			c-4.233-4.785-8.956-9.074-14.052-12.87c5.572-12.113-0.671-31.735-11.18-27.948c-8.622,3.106,3.579,19.744,8.716,26.174
			c-4.077-2.846-8.369-5.393-12.83-7.628c-1.57-0.787-3.163-1.525-4.767-2.239c2.901-12.988-7.198-30.81-16.685-24.969
			c-7.727,4.757,7.239,18.32,13.693,23.677c-5.727-2.366-11.635-4.293-17.634-5.854c1.57-13.137-9.88-29.721-18.77-23.159
			c-7.242,5.345,8.505,17.46,15.474,22.335c-1.522-0.36-3.048-0.701-4.578-1.017c-4.867-1.003-9.778-1.778-14.712-2.366
			c0.7-13.277-12.154-29.154-20.547-21.851c-7.109,6.186,11.494,17.749,18.183,21.585c-4.83-0.515-9.679-0.856-14.531-1.03
			C64.265,323.51,62.466,323.475,60.667,323.455z"/>
	</g>
	<g>
		<path style="fill:#EB725F;" d="M445.79,280.51c3.036-1.819,6.182-3.455,9.411-4.9c15.272,2.361,27.796-6.748,27.796-6.748
			c-17.311-5.237-25.483,2.342-27.957,5.401c-1.024,0.465-2.04,0.938-3.035,1.422c-4.783,2.329-9.341,5.085-13.624,8.208
			c9.238-10.12,10.037-23.336,10.037-23.336c-16.517,10.999-14.131,23.318-13.402,25.909c-3.712,2.984-7.181,6.265-10.369,9.808
			c6.103-13.448,1.562-27.335,1.562-27.335c-11.183,16.121-4.707,26.646-2.982,28.951c-2.382,2.781-4.599,5.708-6.617,8.782
			c-0.605,0.922-1.171,1.867-1.74,2.811c2.729-14.285-4.64-26.566-4.64-26.566c-7.157,17.791,0.944,26.618,3.362,28.749
			c-2.518,4.453-4.649,9.11-6.427,13.905c1.826-13.501-4.932-24.767-4.932-24.767c-7.301,18.15,1.281,26.976,3.506,28.875
			c-1.16,3.579-2.156,7.213-2.952,10.89c-0.177,0.816,1.077,1.165,1.254,0.346c1.258-5.816,2.992-11.503,5.188-16.98
			c15.692-0.616,26.289-12.341,26.289-12.341c-14.601-1.269-21.598,4.465-24.681,8.549c1.763-3.917,3.785-7.703,6.06-11.333
			c15.365,3.011,28.356-5.884,28.356-5.884c-14.417-4.811-22.635-0.393-26.412,2.913c2.386-3.493,5.026-6.817,7.921-9.944
			c14.835,4.798,28.745-2.397,28.745-2.397c-12.438-5.935-20.748-3.712-25.288-1.145c0.896-0.859,1.814-1.701,2.754-2.524
			c2.641-2.312,5.432-4.462,8.34-6.448c13.728,7.554,28.821,3.025,28.821,3.025C459.226,278.436,450.77,278.903,445.79,280.51z"/>
		<path style="fill:#EB725F;" d="M56.121,373.32c-3.54,0.012-7.08-0.189-10.594-0.598c-11.921-9.834-27.341-8.404-27.341-8.404
			c12.204,13.348,23.101,11.009,26.791,9.645c1.118,0.124,2.232,0.236,3.335,0.328c5.302,0.442,10.628,0.402,15.905-0.093
			c-13.113,3.977-20.553,14.929-20.553,14.929c19.818-1.014,24.063-12.821,24.76-15.421c4.716-0.668,9.374-1.715,13.925-3.131
			c-12.118,8.441-15.312,22.698-15.312,22.698c17.851-8.142,17.663-20.499,17.358-23.361c3.468-1.174,6.871-2.556,10.176-4.167
			c0.992-0.483,1.961-1.007,2.932-1.526c-9.645,10.884-9.588,25.206-9.588,25.206c15.243-11.635,12.792-23.362,11.802-26.43
			c4.441-2.541,8.652-5.455,12.63-8.668c-8.469,10.672-8.417,23.809-8.417,23.809c15.551-11.87,12.685-23.842,11.743-26.611
			c2.826-2.483,5.539-5.098,8.102-7.852c0.569-0.611-0.331-1.552-0.901-0.938c-4.054,4.356-8.45,8.359-13.136,11.944
			c-13.804-7.49-28.903-2.827-28.903-2.827c11.902,8.552,20.846,7.199,25.584,5.264c-3.517,2.466-7.19,4.687-11,6.645
			c-11.669-10.44-27.38-9.433-27.38-9.433c9.933,11.503,19.255,11.905,24.192,10.994c-3.836,1.783-7.804,3.291-11.89,4.499
			c-10.3-11.705-25.933-12.63-25.933-12.63c7.658,11.458,15.937,13.794,21.152,13.908c-1.21,0.281-2.429,0.536-3.657,0.762
			c-3.452,0.638-6.95,1.06-10.464,1.281c-7.94-13.508-23.228-17.328-23.228-17.328C43.512,368.237,51.019,372.157,56.121,373.32z"/>
	</g>
	<path style="fill:#92A6F4;" d="M413.055,404.825c0,2.422-1.981,4.403-4.403,4.403H253.535c-2.422,0-4.403-1.982-4.403-4.403
		V175.303c0-2.422,1.981-4.403,4.403-4.403h155.117c2.422,0,4.403,1.981,4.403,4.403V404.825z"/>
	<rect x="256.838" y="183.734" style="fill:#D0DBF7;" width="148.512" height="203.853"/>
	<g>
		<g>
			<g>
				<g>
					<rect x="273.891" y="198.964" style="fill:#F5F9FF;" width="114.404" height="172.382"/>
					<rect x="273.891" y="198.964" style="fill:#E2E6FF;" width="114.404" height="10.526"/>
				</g>
				<g>
					<path style="fill:#EB725F;" d="M283.076,204.47c0,1.33-1.078,2.409-2.409,2.409c-1.33,0-2.409-1.078-2.409-2.409
						c0-1.33,1.078-2.409,2.409-2.409C281.997,202.061,283.076,203.139,283.076,204.47z"/>
					<path style="fill:#F9AB43;" d="M291.186,204.47c0,1.33-1.078,2.409-2.409,2.409c-1.33,0-2.409-1.078-2.409-2.409
						c0-1.33,1.078-2.409,2.409-2.409C290.108,202.061,291.186,203.139,291.186,204.47z"/>
					<path style="fill:#6E7FDD;" d="M299.297,204.47c0,1.33-1.078,2.409-2.409,2.409c-1.33,0-2.409-1.078-2.409-2.409
						c0-1.33,1.078-2.409,2.409-2.409C298.219,202.061,299.297,203.139,299.297,204.47z"/>
				</g>
			</g>
		</g>
		<polygon style="fill:#E2E6FF;" points="363.947,266.887 354.272,257.212 331.094,280.389 307.915,257.212 298.241,266.887 
			321.419,290.064 298.241,313.241 307.915,322.915 331.094,299.738 354.272,322.915 363.947,313.241 340.768,290.064 		"/>
	</g>
	<g>
		<path style="fill:#6E7FDD;" d="M311.811,402.044c0,2.283-1.868,4.15-4.15,4.15H90.156c-2.283,0-4.15-1.867-4.15-4.15V261.362
			c0-2.283,1.868-4.15,4.15-4.15h217.505c2.283,0,4.15,1.868,4.15,4.15V402.044z"/>
		<rect x="92.609" y="264.138" style="fill:#D0DBF7;" width="212.6" height="135.131"/>
		<path style="fill:#6E7FDD;" d="M71.336,392.552v11.987c0,2.579,2.11,4.689,4.689,4.689h245.767c2.579,0,4.689-2.11,4.689-4.689
			v-11.987H71.336z"/>
		<path style="fill:#92A6F4;" d="M161.13,392.552v3.55c0,0.764,0.625,1.389,1.389,1.389h72.781c0.764,0,1.389-0.625,1.389-1.389
			v-3.55H161.13z"/>
	</g>
	<g>
		<g>
			<path style="fill:#F9AB43;" d="M435.318,383.056c-0.684,3.081-3.826,5.601-6.982,5.601h-66.928c-3.156,0-6.298-2.521-6.982-5.601
				L339.5,315.855c-0.684-3.081,1.338-5.601,4.494-5.601h101.757c3.156,0,5.178,2.521,4.494,5.601L435.318,383.056z"/>
			<path style="fill:#FFCF74;" d="M409.788,318.263c-3.156,0-6.606,2.431-7.668,5.403l-3.182,8.907
				c-1.062,2.972-4.512,5.403-7.668,5.403h-48.575c-3.156,0-5.068,2.494-4.25,5.542l16.151,60.168
				c0.818,3.048,4.069,5.542,7.225,5.542h66.311c3.156,0,6.407-2.494,7.225-5.542l16.151-60.168
				c0.818-3.048,2.356-7.973,3.418-10.945l3.182-8.907c1.062-2.972-0.652-5.403-3.808-5.403H409.788z"/>
			<path style="opacity:0.1;fill:#0046A0;" d="M454.3,318.263h-17.898c2.154,6.196,3.339,12.82,3.339,19.714
				c0,34.296-28.881,62.098-64.508,62.098c-7.979,0-15.615-1.404-22.668-3.953l2.031,7.565c0.818,3.048,4.069,5.542,7.225,5.542
				h66.311c3.156,0,6.407-2.494,7.225-5.542l16.151-60.168c0.818-3.048,2.356-7.973,3.418-10.945l3.182-8.907
				C459.169,320.694,457.456,318.263,454.3,318.263z"/>
		</g>
		<g>
			<g>
				<path style="fill:#EB725F;" d="M388.296,363.332c0,3.33-1.935,6.03-4.321,6.03s-4.321-2.7-4.321-6.03
					c0-3.33,1.935-6.03,4.321-6.03S388.296,360.001,388.296,363.332z"/>
				<path style="fill:#EB725F;" d="M417.026,363.332c0,3.33-1.935,6.03-4.322,6.03c-2.387,0-4.321-2.7-4.321-6.03
					c0-3.33,1.935-6.03,4.321-6.03C415.091,357.302,417.026,360.001,417.026,363.332z"/>
			</g>
			<g>
				<path style="fill:#EB725F;" d="M388.435,380.193c1.482-1.623,3.543-2.898,5.594-3.638c5.19-1.871,10.207,0.084,14.161,3.638
					c1.056,0.949,2.624-0.61,1.563-1.563c-4.382-3.94-10.068-6.254-15.897-4.349c-2.557,0.835-5.153,2.343-6.984,4.349
					C385.914,379.679,387.474,381.246,388.435,380.193L388.435,380.193z"/>
			</g>
		</g>
	</g>
	<g>
		<g>
			<g>
				<g>
					<rect x="106.777" y="309.547" style="fill:#F8FAFF;" width="97.916" height="72.23"/>
					<rect x="106.777" y="309.547" style="fill:#E2E6FF;" width="97.916" height="9.009"/>
				</g>
				<g>
					<path style="fill:#EB725F;" d="M114.637,314.259c0,1.139-0.923,2.062-2.062,2.062c-1.138,0-2.061-0.923-2.061-2.062
						s0.923-2.062,2.061-2.062C113.714,312.198,114.637,313.121,114.637,314.259z"/>
					<path style="fill:#F9AB43;" d="M121.579,314.259c0,1.139-0.923,2.062-2.062,2.062c-1.139,0-2.062-0.923-2.062-2.062
						s0.923-2.062,2.062-2.062C120.656,312.198,121.579,313.121,121.579,314.259z"/>
					<path style="fill:#6E7FDD;" d="M128.521,314.259c0,1.139-0.923,2.062-2.062,2.062c-1.139,0-2.062-0.923-2.062-2.062
						s0.923-2.062,2.062-2.062C127.598,312.198,128.521,313.121,128.521,314.259z"/>
				</g>
			</g>
			<g>
				<path style="fill:#D0DBF7;" d="M150.031,354.436c0-3.019,1.199-5.371,3.595-7.059l1.154-0.798
					c1.095-0.71,1.857-1.294,2.286-1.753c0.428-0.458,0.644-1.028,0.644-1.709c0-1.716-1.436-2.575-4.307-2.575
					c-1.331,0-2.708,0.178-4.128,0.533c-1.42,0.355-2.767,0.859-4.039,1.509v-6.836c2.722-1.243,5.771-1.864,9.144-1.864
					c3.64,0,6.525,0.762,8.655,2.286c2.131,1.524,3.196,3.632,3.196,6.325c0,1.509-0.34,2.73-1.02,3.662
					c-0.681,0.932-1.835,1.975-3.462,3.129c-1.095,0.799-1.895,1.413-2.397,1.843c-0.503,0.429-0.88,0.91-1.131,1.442
					c-0.252,0.533-0.377,1.184-0.377,1.953v0.844h-7.812V354.436z M150.941,365.067c-0.785-0.784-1.177-1.753-1.177-2.908
					c0-1.183,0.392-2.16,1.177-2.929c0.783-0.769,1.768-1.154,2.951-1.154c1.154,0,2.138,0.392,2.952,1.176
					c0.813,0.785,1.221,1.754,1.221,2.908c0,1.154-0.408,2.124-1.221,2.908c-0.814,0.784-1.798,1.176-2.952,1.176
					C152.709,366.243,151.724,365.851,150.941,365.067z"/>
			</g>
		</g>
		<g>
			<g>
				<g>
					<rect x="191.835" y="279.612" style="fill:#F5F9FF;" width="97.916" height="72.23"/>
					<rect x="191.835" y="279.612" style="fill:#E2E6FF;" width="97.916" height="9.009"/>
				</g>
				<g>
					<circle style="fill:#EB725F;" cx="197.633" cy="284.325" r="2.062"/>
					<path style="fill:#F9AB43;" d="M206.637,284.325c0,1.139-0.923,2.062-2.062,2.062c-1.139,0-2.062-0.923-2.062-2.062
						c0-1.139,0.923-2.062,2.062-2.062C205.714,282.263,206.637,283.186,206.637,284.325z"/>
					<circle style="fill:#6E7FDD;" cx="211.517" cy="284.325" r="2.062"/>
				</g>
			</g>
			<g>
				<path style="fill:#D0DBF7;" d="M235.089,324.501c0-3.019,1.199-5.371,3.595-7.059l1.154-0.798
					c1.095-0.71,1.857-1.294,2.286-1.753c0.428-0.458,0.644-1.028,0.644-1.709c0-1.716-1.436-2.575-4.307-2.575
					c-1.331,0-2.707,0.178-4.128,0.533c-1.42,0.355-2.767,0.859-4.039,1.509v-6.836c2.722-1.243,5.771-1.864,9.144-1.864
					c3.64,0,6.525,0.762,8.655,2.286c2.131,1.524,3.196,3.632,3.196,6.325c0,1.509-0.34,2.73-1.02,3.662
					c-0.681,0.932-1.835,1.975-3.462,3.129c-1.095,0.799-1.895,1.413-2.397,1.843c-0.503,0.429-0.88,0.909-1.131,1.442
					c-0.252,0.533-0.377,1.184-0.377,1.953v0.844h-7.812V324.501z M235.999,335.132c-0.785-0.784-1.177-1.753-1.177-2.908
					c0-1.183,0.392-2.16,1.177-2.929c0.783-0.77,1.768-1.154,2.951-1.154c1.154,0,2.138,0.392,2.952,1.176
					c0.813,0.785,1.221,1.754,1.221,2.908c0,1.154-0.408,2.124-1.221,2.908c-0.814,0.784-1.798,1.176-2.952,1.176
					C237.767,336.308,236.782,335.916,235.999,335.132z"/>
			</g>
		</g>
	</g>
	<g>
		<g>
			<path style="fill:#E2E6FF;" d="M217.414,190.637l-15.505,4.212l-4.246-15.63l-31.646,8.597l14.776,54.39l47.213-12.827
				l-10.513-38.696L217.414,190.637z M201.527,221.919c-0.435,0.727-1.07,1.204-1.905,1.431c-0.856,0.233-1.646,0.143-2.367-0.271
				c-0.722-0.413-1.196-1.037-1.423-1.872c-0.233-0.856-0.141-1.64,0.276-2.351c0.415-0.711,1.052-1.183,1.909-1.415
				c0.835-0.227,1.624-0.137,2.367,0.271c0.743,0.408,1.228,1.029,1.455,1.864C202.066,220.41,201.961,221.192,201.527,221.919z
				 M203.865,206.593c-0.31,0.808-0.94,1.79-1.89,2.945c-0.635,0.794-1.093,1.395-1.373,1.804c-0.279,0.41-0.458,0.831-0.535,1.266
				c-0.077,0.435-0.04,0.931,0.111,1.487l0.166,0.611l-5.652,1.536l-0.183-0.674c-0.593-2.184-0.188-4.122,1.214-5.814l0.678-0.804
				c0.653-0.729,1.09-1.301,1.31-1.718c0.22-0.416,0.264-0.87,0.13-1.363c-0.337-1.242-1.545-1.581-3.622-1.016
				c-0.964,0.262-1.924,0.661-2.882,1.197c-0.957,0.536-1.833,1.165-2.626,1.885l-1.344-4.946c1.725-1.434,3.809-2.483,6.25-3.146
				c2.633-0.715,4.871-0.731,6.712-0.048c1.841,0.684,3.026,2,3.555,3.948C204.179,204.835,204.173,205.784,203.865,206.593z"/>
			<polygon style="fill:#E2E6FF;" points="200.675,179.89 203.821,191.469 215.306,188.349 			"/>
		</g>
		<g>
			<path style="fill:#E2E6FF;" d="M305.325,128.659l-20.874-6.685l6.739-21.043l-42.604-13.643l-23.449,73.225l63.563,20.355
				l16.683-52.096L305.325,128.659z M263.925,152.676c-1.038,0.51-2.118,0.585-3.242,0.225c-1.152-0.369-1.99-1.058-2.508-2.066
				c-0.52-1.008-0.599-2.075-0.239-3.199c0.369-1.152,1.055-1.982,2.06-2.487c1.003-0.505,2.082-0.573,3.235-0.204
				c1.124,0.36,1.96,1.049,2.509,2.066c0.547,1.018,0.642,2.089,0.282,3.213C265.661,151.349,264.962,152.166,263.925,152.676z
				 M277.974,136.867c-0.955,0.695-2.404,1.351-4.349,1.968c-1.316,0.437-2.286,0.786-2.91,1.047
				c-0.624,0.261-1.141,0.611-1.552,1.052c-0.412,0.441-0.737,1.036-0.977,1.784l-0.263,0.822l-7.61-2.437l0.291-0.908
				c0.942-2.941,2.843-4.858,5.704-5.754l1.373-0.418c1.288-0.35,2.213-0.681,2.774-0.994c0.56-0.313,0.948-0.801,1.16-1.464
				c0.535-1.672-0.596-2.956-3.392-3.851c-1.297-0.415-2.693-0.671-4.188-0.769c-1.493-0.097-2.963-0.027-4.405,0.21l2.132-6.659
				c3.039-0.361,6.202-0.015,9.488,1.037c3.545,1.135,6.119,2.778,7.718,4.927c1.6,2.15,1.98,4.535,1.14,7.158
				C279.64,135.089,278.928,136.171,277.974,136.867z"/>
			<polygon style="fill:#E2E6FF;" points="294.139,103.935 289.148,119.523 304.61,124.475 			"/>
		</g>
	</g>
	<g>
		<g>
			<path style="fill:#EB725F;" d="M429.492,207.762c0,4.578-3.746,8.324-8.324,8.324h-89.209c-4.578,0-8.324-3.746-8.324-8.324
				V151.88c0-4.578,3.746-8.324,8.324-8.324h89.209c4.578,0,8.324,3.746,8.324,8.324V207.762z"/>
			<g>
				<g>
					<path style="fill:#FFFFFF;" d="M400.808,204.454h-48.489c-2.734,0-4.894-1.093-5.925-2.997c-1.031-1.905-0.766-4.31,0.728-6.6
						v-0.001l23.618-36.184c1.446-2.215,3.569-3.486,5.823-3.486c2.255,0,4.377,1.271,5.823,3.485l23.618,36.185
						c1.494,2.289,1.759,4.695,0.728,6.6C405.701,203.362,403.542,204.454,400.808,204.454z M351.416,197.66
						c-0.53,0.812-0.537,1.282-0.509,1.364c0.044,0.051,0.443,0.303,1.412,0.303h48.489c0.969,0,1.367-0.252,1.42-0.319
						c0.019-0.066,0.012-0.537-0.518-1.348l-23.618-36.185c-0.474-0.727-1.046-1.161-1.529-1.161c-0.483,0-1.055,0.434-1.53,1.161
						L351.416,197.66z"/>
				</g>
				<g>
					<path style="fill:#FFFFFF;" d="M375.078,194.643c-0.391-0.391-0.587-0.875-0.587-1.451c0-0.576,0.196-1.059,0.587-1.451
						c0.392-0.392,0.875-0.588,1.451-0.588c0.576,0,1.065,0.196,1.469,0.588c0.402,0.392,0.604,0.875,0.604,1.451
						c0,0.576-0.202,1.059-0.604,1.451c-0.404,0.391-0.893,0.587-1.469,0.587C375.953,195.23,375.47,195.034,375.078,194.643z
						 M373.869,170.566h5.388l-1.001,17.237h-3.386L373.869,170.566z"/>
				</g>
			</g>
		</g>
		<g>
			<path style="fill:#EB725F;" d="M142.635,278.816c0,3.794-3.104,6.899-6.899,6.899H61.799c-3.794,0-6.899-3.105-6.899-6.899V232.5
				c0-3.794,3.105-6.899,6.899-6.899h73.938c3.795,0,6.899,3.105,6.899,6.899V278.816z"/>
			<path style="fill:#FFFFFF;" d="M98.767,231.647c-13.239,0-24.01,10.771-24.01,24.01c0,13.239,10.771,24.011,24.01,24.011
				s24.01-10.771,24.01-24.011C122.778,242.418,112.007,231.647,98.767,231.647z M98.767,236.175c4.557,0,8.751,1.577,12.073,4.208
				L83.493,267.73c-2.631-3.322-4.208-7.516-4.208-12.073C79.285,244.915,88.024,236.175,98.767,236.175z M98.767,275.141
				c-4.557,0-8.751-1.577-12.073-4.209l27.347-27.347c2.632,3.322,4.209,7.516,4.209,12.073
				C118.25,266.4,109.51,275.141,98.767,275.141z"/>
		</g>
	</g>
	<g>
		<g>
			<g>
				<g>
					
						<rect x="260.103" y="388.614" transform="matrix(0.9023 -0.4312 0.4312 0.9023 -140.699 163.7569)" style="fill:#EB725F;" width="61.579" height="7.283"/>
				</g>
				<g>
					
						<rect x="296.912" y="380.271" transform="matrix(0.9023 -0.4312 0.4312 0.9023 -135.3933 170.4643)" style="fill:#FFCF74;" width="22.88" height="7.283"/>
				</g>
			</g>
			<g>
				<path style="fill:#EB725F;" d="M370.83,354.057c-7.388-15.461-25.911-22.005-41.372-14.617
					c-15.461,7.388-22.005,25.911-14.617,41.372c7.388,15.461,25.911,22.005,41.372,14.617
					C371.674,388.04,378.218,369.518,370.83,354.057z M320.943,377.896c-5.778-12.091-0.66-26.576,11.431-32.353
					c12.091-5.778,26.576-0.66,32.353,11.431c5.778,12.091,0.66,26.576-11.431,32.353
					C341.206,395.104,326.721,389.986,320.943,377.896z"/>
				
					<ellipse transform="matrix(0.9754 -0.2206 0.2206 0.9754 -72.6168 84.6914)" style="opacity:0.3;fill:#F5F9FF;" cx="342.835" cy="367.434" rx="24.263" ry="24.263"/>
			</g>
		</g>
		<path style="fill:#FFFFFF;" d="M342.413,361.734c-3.52,1.682-7.738,0.192-9.42-3.328c-1.682-3.52-0.192-7.738,3.328-9.42
			c3.52-1.682,7.738-0.192,9.42,3.328C347.424,355.834,345.934,360.052,342.413,361.734z"/>
	</g>
	<g>
		<g>
			<path style="fill:#D0DBF7;" d="M181.061,125.511c0.982-4.219,3.424-7.118,7.322-8.697l1.873-0.74
				c1.762-0.636,3.017-1.205,3.766-1.706c0.748-0.501,1.235-1.228,1.456-2.179c0.559-2.399-1.17-4.066-5.182-5
				c-1.861-0.433-3.842-0.632-5.944-0.598c-2.1,0.034-4.146,0.3-6.137,0.795l2.224-9.555c4.209-0.851,8.673-0.728,13.388,0.37
				c5.088,1.184,8.874,3.189,11.355,6.012c2.483,2.824,3.285,6.118,2.409,9.881c-0.491,2.11-1.364,3.705-2.618,4.787
				c-1.256,1.081-3.208,2.163-5.858,3.247c-1.791,0.761-3.108,1.359-3.951,1.796c-0.843,0.436-1.527,0.985-2.051,1.648
				c-0.526,0.663-0.913,1.532-1.163,2.606l-0.275,1.18l-10.92-2.542L181.061,125.511z M178.874,140.667
				c-0.842-1.351-1.074-2.834-0.699-4.447c0.385-1.654,1.251-2.892,2.598-3.712c1.345-0.821,2.847-1.038,4.501-0.653
				c1.613,0.375,2.861,1.244,3.744,2.604c0.881,1.362,1.135,2.848,0.76,4.462s-1.261,2.836-2.652,3.667
				c-1.393,0.831-2.896,1.059-4.509,0.683C180.963,142.886,179.714,142.018,178.874,140.667z"/>
		</g>
		<g>
			<path style="fill:#D0DBF7;" d="M107.406,208.685c-1.131-2.312-1.095-4.563,0.108-6.754l0.585-1.044
				c0.573-0.954,0.938-1.687,1.094-2.199c0.156-0.512,0.108-1.029-0.147-1.55c-0.643-1.314-2.065-1.434-4.263-0.358
				c-1.02,0.499-2.007,1.151-2.962,1.955c-0.954,0.804-1.797,1.694-2.528,2.669l-2.562-5.236c1.619-1.972,3.721-3.59,6.305-4.854
				c2.788-1.364,5.284-1.861,7.486-1.492c2.203,0.369,3.809,1.585,4.818,3.647c0.566,1.156,0.762,2.218,0.591,3.187
				c-0.173,0.969-0.666,2.201-1.479,3.694c-0.539,1.023-0.921,1.792-1.146,2.31c-0.224,0.517-0.334,1.027-0.326,1.529
				c0.007,0.503,0.155,1.048,0.443,1.637l0.316,0.647l-5.984,2.928L107.406,208.685z M112.087,216.486
				c-0.895-0.306-1.559-0.902-1.991-1.786c-0.443-0.906-0.509-1.801-0.196-2.685c0.311-0.883,0.922-1.547,1.828-1.99
				c0.884-0.432,1.785-0.501,2.702-0.206c0.917,0.297,1.592,0.886,2.024,1.77c0.433,0.884,0.484,1.779,0.155,2.684
				c-0.33,0.906-0.937,1.574-1.821,2.007C113.882,216.724,112.98,216.793,112.087,216.486z"/>
		</g>
	</g>
	<g>
		<path style="fill:#FFCF74;" d="M97.448,164.964v-3.922h-4.971c-0.328-2.231-1.203-4.279-2.489-6.01l3.515-3.515l-2.773-2.773
			l-3.515,3.515c-1.731-1.286-3.779-2.161-6.01-2.489v-4.971h-3.922v4.971c-2.231,0.328-4.279,1.202-6.01,2.489l-3.515-3.515
			l-2.773,2.773l3.515,3.515c-1.286,1.731-2.161,3.779-2.489,6.01h-4.971v3.922h4.971c0.328,2.231,1.203,4.279,2.489,6.01
			l-3.515,3.515l2.773,2.773l3.515-3.515c1.731,1.286,3.779,2.161,6.01,2.489v4.971h3.922v-4.971
			c2.231-0.328,4.279-1.203,6.01-2.489l3.515,3.515l2.773-2.773l-3.515-3.515c1.286-1.731,2.161-3.779,2.489-6.01H97.448z
			 M79.243,171.296c-4.58,0-8.293-3.713-8.293-8.293c0-4.58,3.713-8.293,8.293-8.293s8.293,3.713,8.293,8.293
			C87.536,167.583,83.824,171.296,79.243,171.296z"/>
		<path style="fill:#F9AB43;" d="M139.709,140.801v-5.488h-6.956c-0.459-3.122-1.683-5.988-3.483-8.41l4.918-4.918l-3.881-3.881
			l-4.918,4.918c-2.422-1.8-5.288-3.023-8.41-3.483v-6.956h-5.488v6.956c-3.122,0.459-5.988,1.683-8.41,3.483l-4.918-4.918
			l-3.881,3.881l4.918,4.918c-1.8,2.422-3.024,5.288-3.483,8.41h-6.956v5.488h6.956c0.459,3.122,1.683,5.988,3.483,8.41
			l-4.918,4.918l3.881,3.881l4.918-4.918c2.422,1.8,5.288,3.023,8.41,3.483v6.956h5.488v-6.956c3.122-0.459,5.988-1.683,8.41-3.483
			l4.918,4.918l3.881-3.881l-4.918-4.918c1.8-2.422,3.023-5.288,3.483-8.41H139.709z M114.235,149.662
			c-6.409,0-11.605-5.196-11.605-11.605c0-6.409,5.196-11.605,11.605-11.605c6.409,0,11.604,5.195,11.604,11.605
			C125.84,144.466,120.644,149.662,114.235,149.662z"/>
	</g>
</g>
</svg>
